<?xml version="1.0" standalone="no"?>
<!DOCTYPE svg PUBLIC "-//W3C//DTD SVG 20010904//EN"
 "http://www.w3.org/TR/2001/REC-SVG-20010904/DTD/svg10.dtd">
<svg version="1.0" xmlns="http://www.w3.org/2000/svg"
 width="984.000000pt" height="984.000000pt" viewBox="0 0 984.000000 984.000000"
 preserveAspectRatio="xMidYMid meet">
<metadata>
Created by potrace 1.14, written by Peter Selinger 2001-2017
</metadata>
<g transform="translate(0.000000,984.000000) scale(0.100000,-0.100000)"
fill="#000000" stroke="none">
<path d="M4786 9560 c-91 -24 -165 -77 -223 -158 -117 -164 -122 -353 -16
-540 21 -37 44 -79 52 -94 8 -15 39 -45 71 -67 80 -56 80 -57 80 -551 l0 -409
-57 -6 c-32 -3 -89 -10 -128 -15 -38 -5 -97 -12 -130 -15 -33 -4 -91 -13 -130
-20 -186 -38 -313 -68 -348 -81 -20 -8 -49 -14 -62 -14 -14 0 -85 -23 -157
-51 -73 -28 -156 -59 -185 -69 -64 -23 -199 -86 -233 -110 -14 -9 -40 -22 -58
-28 -18 -6 -66 -32 -106 -57 -40 -25 -75 -45 -78 -45 -15 0 -183 -110 -186
-121 -2 -12 315 -14 2103 -14 1570 0 2105 3 2105 11 0 7 -17 19 -39 27 -21 9
-74 40 -117 69 -97 67 -442 238 -549 274 -44 15 -96 34 -115 44 -32 16 -92 35
-280 90 -36 10 -96 26 -135 34 -38 8 -104 21 -145 30 -108 23 -364 54 -512 62
l-128 7 0 379 c0 302 3 395 15 456 16 79 18 81 93 139 24 18 106 140 121 178
2 5 13 30 24 55 46 103 45 246 -3 355 -30 70 -133 188 -191 220 -101 55 -232
68 -353 35z"/>
<path d="M2530 6934 c-165 -24 -351 -92 -514 -186 -90 -53 -113 -72 -224 -190
-5 -6 -32 -32 -60 -59 -27 -26 -65 -74 -82 -106 -18 -32 -41 -67 -51 -78 -46
-51 -132 -302 -154 -445 -23 -150 -22 -3012 0 -3158 39 -252 164 -503 335
-672 92 -91 191 -172 247 -202 142 -77 171 -92 198 -99 17 -4 80 -23 140 -41
l110 -32 2475 -3 c2436 -3 2477 -3 2572 17 181 36 340 102 473 196 98 69 258
223 293 284 23 40 69 107 82 120 21 21 98 207 123 300 42 152 42 141 42 1715
0 1409 -1 1516 -18 1602 -17 89 -87 304 -106 327 -6 6 -24 41 -42 76 -17 36
-46 83 -63 105 -17 22 -35 47 -41 55 -32 45 -238 241 -274 260 -24 12 -64 36
-89 54 -26 17 -58 37 -72 44 -52 24 -198 74 -290 97 l-95 25 -2445 -1 c-1345
-1 -2456 -3 -2470 -5z m4008 -1470 c91 -18 236 -81 308 -133 94 -67 192 -191
246 -309 44 -95 58 -153 65 -268 7 -118 -12 -220 -59 -324 -17 -36 -34 -75
-39 -88 -13 -33 -140 -189 -160 -197 -9 -3 -28 -16 -42 -28 -89 -80 -307 -157
-445 -157 -141 0 -401 84 -452 146 -8 9 -32 27 -53 41 -20 13 -59 53 -85 90
-26 36 -53 72 -60 79 -20 21 -72 141 -93 214 -38 131 -31 313 15 425 9 20 16
44 16 53 0 23 36 93 62 122 13 14 40 48 61 76 53 73 139 141 237 186 47 22 94
44 105 50 26 14 164 36 238 37 32 1 93 -6 135 -15z m-2818 -14 c89 -22 284
-111 293 -133 3 -9 30 -34 61 -56 30 -22 58 -51 61 -63 4 -13 22 -39 40 -58
44 -48 68 -97 106 -215 55 -174 49 -326 -19 -495 -28 -71 -123 -220 -162 -256
-75 -69 -113 -96 -195 -138 -161 -82 -316 -103 -487 -66 -111 24 -266 90 -308
131 -14 13 -46 42 -73 63 -26 20 -55 52 -64 69 -9 18 -33 54 -53 82 -59 80
-96 193 -115 351 -12 98 40 324 95 410 51 81 134 174 223 250 51 43 255 123
342 133 78 9 201 5 255 -9z m2688 -2359 c57 -18 145 -99 177 -163 68 -135 42
-301 -64 -415 -36 -39 -68 -56 -146 -77 -55 -15 -181 -17 -1430 -14 l-1370 3
-56 26 c-50 24 -117 84 -156 139 -25 35 -55 162 -49 203 15 92 48 167 95 212
62 60 78 71 136 88 44 14 215 16 1435 14 1133 -2 1393 -5 1428 -16z"/>
<path d="M6268 5029 c-169 -61 -256 -260 -184 -423 57 -128 154 -188 301 -188
100 1 153 22 217 88 60 60 87 118 95 199 5 53 2 74 -22 136 -33 86 -70 125
-162 171 -82 40 -165 46 -245 17z"/>
<path d="M3522 5020 c-40 -9 -129 -56 -157 -84 -32 -32 -68 -105 -80 -164 -30
-141 38 -275 175 -348 54 -28 230 -26 285 3 59 32 110 86 140 148 25 50 27 63
23 148 -3 86 -7 98 -37 146 -63 97 -140 144 -256 155 -27 3 -69 1 -93 -4z"/>
<path d="M1110 5555 c-86 -15 -164 -44 -233 -86 -26 -16 -51 -29 -56 -29 -5 0
-46 -37 -91 -82 -68 -69 -90 -99 -128 -178 -72 -150 -74 -162 -79 -471 -7
-392 11 -507 104 -646 86 -128 168 -204 275 -255 105 -50 178 -70 276 -75 l92
-6 0 922 0 921 -42 -1 c-24 -1 -77 -7 -118 -14z"/>
<path d="M8690 4644 l0 -924 23 0 c112 1 397 81 397 111 0 4 26 24 59 43 35
21 69 53 86 78 16 24 47 62 71 86 43 44 74 116 108 248 22 86 23 600 1 701
-19 92 -81 246 -105 263 -3 3 -26 31 -49 62 -47 63 -152 140 -264 195 -66 32
-133 47 -264 56 l-63 5 0 -924z"/>
<path d="M3405 1399 c-22 -10 -47 -19 -57 -19 -9 0 -18 -3 -20 -7 -1 -5 -28
-21 -58 -37 -176 -93 -359 -228 -516 -383 -137 -133 -264 -278 -264 -299 0
-19 24 -29 155 -60 61 -14 126 -32 145 -40 19 -8 55 -18 80 -24 25 -5 86 -21
135 -35 50 -14 122 -32 161 -40 39 -8 113 -26 165 -40 52 -14 127 -32 167 -40
41 -8 78 -17 83 -20 5 -3 46 -12 91 -20 46 -8 112 -21 148 -29 63 -14 121 -23
454 -67 436 -57 1065 -53 1554 12 125 16 261 34 302 40 41 5 89 14 105 19 17
5 100 23 185 40 85 17 184 40 220 50 36 10 110 28 165 40 55 12 123 28 150 35
28 8 86 24 130 36 44 12 116 32 160 44 97 29 181 50 258 65 31 6 57 16 57 21
0 12 -153 191 -201 235 -19 17 -41 40 -49 50 -13 15 -55 51 -98 84 -4 3 -19
21 -34 41 -14 19 -66 62 -115 94 -48 33 -100 72 -115 86 -16 15 -41 30 -57 34
-16 3 -54 24 -85 45 -30 21 -89 55 -130 74 l-75 36 -1578 -1 c-1527 -1 -1579
-1 -1618 -20z"/>
</g>
</svg>
